<svg width="17" height="17" viewBox="0 0 17 17" fill="none" xmlns="http://www.w3.org/2000/svg">
<path d="M15.0797 1.15906H13.1948V0.772716C13.1945 0.567846 13.0951 0.371431 12.9184 0.226567C12.7417 0.0817023 12.5022 0.000220522 12.2523 0H4.71242C4.46255 0.000220522 4.22298 0.0817023 4.04629 0.226567C3.8696 0.371431 3.77022 0.567846 3.76995 0.772716V1.15906H1.88498C1.38523 1.15953 0.906107 1.3225 0.55273 1.61223C0.199352 1.90196 0.000572942 2.29478 0 2.70452V15.4545C0.000572942 15.8643 0.199352 16.2571 0.55273 16.5468C0.906107 16.8366 1.38523 16.9995 1.88498 17H15.0797C15.5794 16.9995 16.0586 16.8366 16.4119 16.5468C16.7653 16.2571 16.9641 15.8643 16.9647 15.4545V2.70452C16.9641 2.29478 16.7653 1.90196 16.4119 1.61223C16.0586 1.3225 15.5794 1.15953 15.0797 1.15906ZM4.71242 0.772716H12.2522L12.2529 2.31818H8.48268H4.71242V0.772716ZM16.0222 15.4545C16.0219 15.6594 15.9226 15.8558 15.7459 16.0007C15.5692 16.1456 15.3296 16.227 15.0797 16.2272H1.88498C1.63509 16.2271 1.3955 16.1456 1.2188 16.0007C1.04209 15.8558 0.942712 15.6594 0.942466 15.4545V2.70452C0.942735 2.49965 1.04212 2.30324 1.21881 2.15837C1.39549 2.01351 1.63506 1.93203 1.88493 1.93181H3.76991V2.31815C3.77018 2.52302 3.86956 2.71943 4.04625 2.8643C4.22294 3.00916 4.4625 3.09064 4.71238 3.09086H12.2522C12.5021 3.09064 12.7417 3.00916 12.9184 2.8643C13.0951 2.71943 13.1944 2.52302 13.1947 2.31815V1.93181H15.0797C15.3296 1.93202 15.5691 2.0135 15.7458 2.15836C15.9225 2.30323 16.0219 2.49965 16.0222 2.70452V15.4545Z" fill="black"/>
<path d="M12.9854 4.88503H3.77188C3.59844 4.88628 3.43268 4.93829 3.31063 5.02977C3.18858 5.12124 3.12012 5.24478 3.12012 5.37352C3.12012 5.50226 3.18858 5.62579 3.31063 5.71726C3.43268 5.80874 3.59844 5.86075 3.77188 5.862H12.9854C13.0724 5.86262 13.1586 5.85045 13.2392 5.82618C13.3198 5.80191 13.3931 5.76603 13.4549 5.72061C13.5167 5.67519 13.5657 5.62113 13.5992 5.56155C13.6327 5.50197 13.6499 5.43806 13.6499 5.37352C13.6499 5.30897 13.6327 5.24506 13.5992 5.18548C13.5657 5.1259 13.5167 5.07184 13.4549 5.02642C13.3931 4.981 13.3198 4.94512 13.2392 4.92085C13.1586 4.89658 13.0724 4.88441 12.9854 4.88503Z" fill="black"/>
<path d="M11.8893 9.18386H3.69946C3.54529 9.18511 3.39795 9.23712 3.28946 9.32859C3.18098 9.42007 3.12012 9.5436 3.12012 9.67234C3.12012 9.80108 3.18098 9.92462 3.28946 10.0161C3.39795 10.1076 3.54529 10.1596 3.69946 10.1608H11.8893C11.9666 10.1615 12.0432 10.1493 12.1149 10.125C12.1865 10.1007 12.2517 10.0649 12.3066 10.0194C12.3615 9.97402 12.4051 9.91996 12.4349 9.86038C12.4646 9.8008 12.4799 9.73689 12.4799 9.67234C12.4799 9.60779 12.4646 9.54389 12.4349 9.48431C12.4051 9.42473 12.3615 9.37067 12.3066 9.32525C12.2517 9.27983 12.1865 9.24395 12.1149 9.21968C12.0432 9.19541 11.9666 9.18324 11.8893 9.18386Z" fill="black"/>
<path d="M10.1842 13.4827H3.58681C3.46262 13.4839 3.34393 13.5359 3.25654 13.6274C3.16914 13.7189 3.12012 13.8424 3.12012 13.9712C3.12012 14.0999 3.16914 14.2234 3.25654 14.3149C3.34393 14.4064 3.46262 14.4584 3.58681 14.4597H10.1842C10.2464 14.4603 10.3082 14.4481 10.3659 14.4238C10.4236 14.3996 10.4761 14.3637 10.5203 14.3183C10.5646 14.2728 10.5997 14.2188 10.6237 14.1592C10.6476 14.0996 10.66 14.0357 10.66 13.9712C10.66 13.9066 10.6476 13.8427 10.6237 13.7831C10.5997 13.7236 10.5646 13.6695 10.5203 13.6241C10.4761 13.5787 10.4236 13.5428 10.3659 13.5185C10.3082 13.4942 10.2464 13.4821 10.1842 13.4827Z" fill="black"/>
</svg>
